<?xml version="1.0" standalone="no"?><!DOCTYPE svg PUBLIC "-//W3C//DTD SVG 1.1//EN" "http://www.w3.org/Graphics/SVG/1.1/DTD/svg11.dtd"><svg t="1710981842439" class="icon" viewBox="0 0 1071 1024" version="1.1" xmlns="http://www.w3.org/2000/svg" p-id="4393" xmlns:xlink="http://www.w3.org/1999/xlink" width="209.1796875" height="200"><path d="M536.157091 93.090909l135.866182 275.968L977.454545 414.068364l-221.696 213.829818L807.098182 930.909091l-272.896-143.778909-273.687273 142.242909 53.015273-302.638545L93.090909 411.601455l305.664-43.333818L536.157091 93.090909M536.157091 46.545455c-17.640727 0-33.745455 9.960727-41.658182 25.739636L368.034909 325.585455 86.574545 365.521455C68.980364 367.988364 54.365091 380.229818 48.872727 397.125818c-5.492364 16.849455-0.977455 35.374545 11.729455 47.802182l202.845091 197.957818-48.779636 278.481455c-3.072 17.454545 4.049455 35.095273 18.338909 45.568 8.145455 5.957818 17.780364 8.983273 27.508364 8.983273 7.354182 0 14.708364-1.722182 21.457455-5.259636l252.043636-131.025455 251.345455 132.468364C792.203636 975.685818 799.697455 977.454545 807.098182 977.454545c9.634909 0 19.223273-2.978909 27.322182-8.843636 14.336-10.379636 21.550545-28.020364 18.571636-45.474909l-47.243636-278.760727 204.008727-196.794182c12.753455-12.334545 17.408-30.813091 12.008727-47.709091-5.399273-16.896-19.968-29.230545-37.515636-31.837091l-281.274182-41.472-125.067636-254.045091C570.088727 56.645818 553.937455 46.592 536.250182 46.545455 536.203636 46.545455 536.157091 46.545455 536.157091 46.545455L536.157091 46.545455z" fill="#666666" p-id="4394"></path></svg>